<?xml version="1.0" encoding="iso-8859-1"?>
<!-- Generator: Adobe Illustrator 19.0.0, SVG Export Plug-In . SVG Version: 6.00 Build 0)  -->
<svg version="1.1" id="Layer_1" xmlns="http://www.w3.org/2000/svg" xmlns:xlink="http://www.w3.org/1999/xlink" x="0px" y="0px"
	 viewBox="0 0 510.67 510.67" style="enable-background:new 0 0 510.67 510.67;" xml:space="preserve">
<g>
	<g>
		<g>
			<polygon points="495.618,97.508 16.975,97.508 255.362,266.01 			"/>
			<path d="M262.312,290.815c-2.094,1.469-4.535,2.203-6.977,2.203c-2.456,0-4.912-0.743-7.013-2.229L0,115.266V301.26
				l67.681-67.681c4.746-4.746,12.438-4.745,17.184-0.001c4.744,4.745,4.744,12.438,0,17.184L0,335.627v60.994l82.716-82.716
				c4.746-4.744,12.438-4.744,17.184,0c4.744,4.745,4.744,12.438,0,17.184l-82.073,82.073h59.361l84.406-84.406
				c4.746-4.744,12.438-4.744,17.184,0c4.744,4.745,4.744,12.438,0,17.184l-67.223,67.223H498.52c6.71,0,12.15-5.44,12.15-12.15
				v-284.38L262.312,290.815z"/>
		</g>
	</g>
</g>
<g>
</g>
<g>
</g>
<g>
</g>
<g>
</g>
<g>
</g>
<g>
</g>
<g>
</g>
<g>
</g>
<g>
</g>
<g>
</g>
<g>
</g>
<g>
</g>
<g>
</g>
<g>
</g>
<g>
</g>
</svg>
