<?xml version="1.0" encoding="iso-8859-1"?>
<!-- Generator: Adobe Illustrator 19.0.0, SVG Export Plug-In . SVG Version: 6.00 Build 0)  -->
<svg version="1.1" id="Layer_1" xmlns="http://www.w3.org/2000/svg" xmlns:xlink="http://www.w3.org/1999/xlink" x="0px" y="0px"
	 viewBox="0 0 510.67 510.67" style="enable-background:new 0 0 510.67 510.67;" xml:space="preserve">
<g>
	<g>
		<path d="M498.52,435.909h-24.783V62.611c0-6.71-5.44-12.15-12.15-12.15H273.523c-6.71,0-12.15,5.439-12.15,12.15v373.298h-12.532
			V193.93c0-6.71-5.439-12.15-12.15-12.15H48.628c-6.71,0-12.15,5.439-12.15,12.15v148.859l41.696-41.696
			c4.745-4.745,12.438-4.745,17.183,0s4.745,12.438,0,17.183l-58.879,58.879v58.754H12.15c-6.71,0-12.15,5.439-12.15,12.15
			s5.439,12.15,12.15,12.15c162.123,0,324.246,0,486.37,0c6.71,0,12.15-5.439,12.15-12.15S505.229,435.909,498.52,435.909z
			 M110.935,401.5l-34.408,34.408H42.161l51.591-51.591c4.745-4.745,12.438-4.745,17.183,0S115.68,396.755,110.935,401.5z
			 M120.773,251.88H92.401c-6.71,0-12.15-5.439-12.15-12.15s5.439-12.15,12.15-12.15h28.372c6.71,0,12.15,5.439,12.15,12.15
			S127.484,251.88,120.773,251.88z M192.659,416.888l-19.021,19.021h-34.366l36.204-36.204c4.745-4.745,12.438-4.745,17.183,0
			S197.404,412.142,192.659,416.888z M194.539,371.852h-28.372c-6.71,0-12.15-5.439-12.15-12.15s5.44-12.15,12.15-12.15h28.372
			c6.71,0,12.15,5.439,12.15,12.15S201.25,371.852,194.539,371.852z M194.539,311.865h-28.372c-6.71,0-12.15-5.439-12.15-12.15
			s5.44-12.15,12.15-12.15h28.372c6.71,0,12.15,5.439,12.15,12.15S201.25,311.865,194.539,311.865z M194.539,251.88h-28.372
			c-6.71,0-12.15-5.439-12.15-12.15s5.44-12.15,12.15-12.15h28.372c6.71,0,12.15,5.439,12.15,12.15S201.25,251.88,194.539,251.88z
			 M344.857,371.852h-28.371c-6.71,0-12.15-5.439-12.15-12.15s5.44-12.15,12.15-12.15h28.371c6.71,0,12.15,5.439,12.15,12.15
			S351.567,371.852,344.857,371.852z M344.857,311.865h-28.371c-6.71,0-12.15-5.439-12.15-12.15s5.44-12.15,12.15-12.15h28.371
			c6.71,0,12.15,5.439,12.15,12.15S351.567,311.865,344.857,311.865z M344.857,251.88h-28.371c-6.71,0-12.15-5.439-12.15-12.15
			s5.44-12.15,12.15-12.15h28.371c6.71,0,12.15,5.439,12.15,12.15S351.567,251.88,344.857,251.88z M344.857,191.894h-28.371
			c-6.71,0-12.15-5.439-12.15-12.15s5.44-12.15,12.15-12.15h28.371c6.71,0,12.15,5.439,12.15,12.15S351.567,191.894,344.857,191.894
			z M344.857,131.909h-28.371c-6.71,0-12.15-5.439-12.15-12.15s5.44-12.15,12.15-12.15h28.371c6.71,0,12.15,5.439,12.15,12.15
			S351.567,131.909,344.857,131.909z M418.624,371.852h-28.372c-6.71,0-12.15-5.439-12.15-12.15s5.44-12.15,12.15-12.15h28.372
			c6.71,0,12.15,5.439,12.15,12.15S425.334,371.852,418.624,371.852z M418.624,311.865h-28.372c-6.71,0-12.15-5.439-12.15-12.15
			s5.44-12.15,12.15-12.15h28.372c6.71,0,12.15,5.439,12.15,12.15S425.334,311.865,418.624,311.865z M418.624,251.88h-28.372
			c-6.71,0-12.15-5.439-12.15-12.15s5.44-12.15,12.15-12.15h28.372c6.71,0,12.15,5.439,12.15,12.15S425.334,251.88,418.624,251.88z
			 M418.624,191.894h-28.372c-6.71,0-12.15-5.439-12.15-12.15s5.44-12.15,12.15-12.15h28.372c6.71,0,12.15,5.439,12.15,12.15
			S425.334,191.894,418.624,191.894z M418.624,131.909h-28.372c-6.71,0-12.15-5.439-12.15-12.15s5.44-12.15,12.15-12.15h28.372
			c6.71,0,12.15,5.439,12.15,12.15S425.334,131.909,418.624,131.909z"/>
	</g>
</g>
<g>
</g>
<g>
</g>
<g>
</g>
<g>
</g>
<g>
</g>
<g>
</g>
<g>
</g>
<g>
</g>
<g>
</g>
<g>
</g>
<g>
</g>
<g>
</g>
<g>
</g>
<g>
</g>
<g>
</g>
</svg>
